<?xml version="1.0" encoding="utf-8"?>
<!-- Generator: Adobe Illustrator 24.1.1, SVG Export Plug-In . SVG Version: 6.00 Build 0)  -->
<svg version="1.1" id="Layer_1" xmlns="http://www.w3.org/2000/svg" xmlns:xlink="http://www.w3.org/1999/xlink" x="0px" y="0px"
	 viewBox="0 0 300 300" style="enable-background:new 0 0 300 300;" xml:space="preserve">
<style type="text/css">
	.st0{fill:none;stroke:#222221;stroke-width:1.5;stroke-miterlimit:10;}
	.st1{fill:#222221;}
</style>
<g id="XMLID_2080_">
	<path id="XMLID_2082_" class="st0" d="M150,299.5L150,299.5C67.4,299.5,0.5,232.6,0.5,150v0C0.5,67.4,67.4,0.5,150,0.5h0
		c82.6,0,149.5,66.9,149.5,149.5v0C299.5,232.6,232.6,299.5,150,299.5z"/>
	<path id="XMLID_2081_" class="st1" d="M127.2,240.4h36.4v-91.2H189l2.7-30.5h-28.1c0,0,0-11.4,0-17.4c0-7.2,1.4-10,8.4-10
		c5.6,0,19.7,0,19.7,0V59.6c0,0-20.8,0-25.2,0c-27.1,0-39.3,11.9-39.3,34.8c0,19.9,0,24.3,0,24.3h-18.9v30.9h18.9V240.4z"/>
</g>
</svg>
