<?xml version="1.0" encoding="utf-8"?>
<!-- Generator: Adobe Illustrator 24.1.1, SVG Export Plug-In . SVG Version: 6.00 Build 0)  -->
<svg version="1.1" id="Layer_1" xmlns="http://www.w3.org/2000/svg" xmlns:xlink="http://www.w3.org/1999/xlink" x="0px" y="0px"
	 viewBox="0 0 300 300" style="enable-background:new 0 0 300 300;" xml:space="preserve">
<style type="text/css">
	.st0{fill:none;stroke:#3F4D97;stroke-width:4;stroke-miterlimit:10;}
	.st1{fill:#3F4D97;}
</style>
<g id="XMLID_2080_">
	<path id="XMLID_2082_" class="st0" d="M150,297.5L150,297.5c-81.5,0-147.5-66-147.5-147.5l0,0C2.5,68.5,68.5,2.5,150,2.5l0,0
		c81.5,0,147.5,66,147.5,147.5l0,0C297.5,231.5,231.5,297.5,150,297.5z"/>
	<path id="XMLID_2081_" class="st1" d="M127.2,240.4h36.4v-91.2H189l2.7-30.5h-28.1c0,0,0-11.4,0-17.4c0-7.2,1.4-10,8.4-10
		c5.6,0,19.7,0,19.7,0V59.6c0,0-20.8,0-25.2,0c-27.1,0-39.3,11.9-39.3,34.8c0,19.9,0,24.3,0,24.3h-18.9v30.9h18.9L127.2,240.4
		L127.2,240.4z"/>
</g>
</svg>
