<?xml version="1.0" encoding="utf-8"?>
<!-- Generator: Adobe Illustrator 24.1.1, SVG Export Plug-In . SVG Version: 6.00 Build 0)  -->
<svg version="1.1" id="Layer_1" xmlns="http://www.w3.org/2000/svg" xmlns:xlink="http://www.w3.org/1999/xlink" x="0px" y="0px"
	 viewBox="0 0 300 300" style="enable-background:new 0 0 300 300;" xml:space="preserve">
<style type="text/css">
	.st0{fill:#272525;}
</style>
<g>
	<g>
		<polygon class="st0" points="264.1,283.4 256,283.4 256,81.1 153.8,21.8 44,81.2 44,283.4 35.9,283.4 35.9,76.3 153.9,12.5 
			264.1,76.4 		"/>
	</g>
	<g>
		<polygon class="st0" points="237.9,283.4 229.8,283.4 229.8,101.3 73.3,101.3 73.3,283.4 65.1,283.4 65.1,93.1 237.9,93.1 		"/>
	</g>
	<g>
		<rect x="69.2" y="146.2" class="st0" width="164.7" height="8.1"/>
	</g>
	<g>
		<rect x="83.1" y="125.5" class="st0" width="140" height="8.1"/>
	</g>
	<g>
		<rect x="83.1" y="110.8" class="st0" width="140" height="8.1"/>
	</g>
	<g>
		<path class="st0" d="M210,269.8H101l-12.8-8.9v-32.8l14.1-4.1H208l12.2,7.1v29.5L210,269.8z M103.6,261.7h103.4l5.2-4.7v-21.3
			l-6.3-3.7H102.9l-6.6,2v22.6L103.6,261.7z"/>
	</g>
	<g>
		<polygon class="st0" points="131.7,287.5 96.7,287.5 96.7,269.6 104.8,269.6 104.8,279.4 123.6,279.4 123.6,269.6 131.7,269.6 		
			"/>
	</g>
	<g>
		<polygon class="st0" points="209.5,287.5 172.1,287.5 172.1,269.6 180.2,269.6 180.2,279.4 201.3,279.4 201.3,265.7 209.5,265.7 
					"/>
	</g>
	<g>
		<rect x="130.8" y="242.8" class="st0" width="45.4" height="8.1"/>
	</g>
	<g>
		<polygon class="st0" points="106.2,229.2 98.4,226.9 116.2,167 193.9,167 210.8,226.9 203,229.1 187.7,175.1 122.2,175.1 		"/>
	</g>
	<g>
		
			<rect x="119.9" y="211.6" transform="matrix(0.4244 -0.9055 0.9055 0.4244 -118.4971 244.9971)" class="st0" width="27.2" height="8.1"/>
	</g>
	<g>
		
			<rect x="162.2" y="211.6" transform="matrix(0.351 -0.9364 0.9364 0.351 -88.151 304.22)" class="st0" width="26.3" height="8.1"/>
	</g>
	<g>
		<circle class="st0" cx="115.4" cy="246.2" r="6.7"/>
	</g>
	<g>
		<circle class="st0" cx="190.8" cy="246.2" r="6.7"/>
	</g>
</g>
</svg>
