<?xml version="1.0" encoding="utf-8"?>
<!-- Generator: Adobe Illustrator 24.1.1, SVG Export Plug-In . SVG Version: 6.00 Build 0)  -->
<svg version="1.1" id="Layer_1" xmlns="http://www.w3.org/2000/svg" xmlns:xlink="http://www.w3.org/1999/xlink" x="0px" y="0px"
	 viewBox="0 0 300 300" style="enable-background:new 0 0 300 300;" xml:space="preserve">
<style type="text/css">
	.st0{fill:#272525;}
</style>
<g>
	<g>
		<path class="st0" d="M275.5,260.7h-250c-5.3,0-9.7-4.4-9.7-9.7v-18.2c0-5.3,4.4-9.7,9.7-9.7H275c5.1,0,9.2,4.1,9.2,9.2v19.8
			C284.2,256.8,280.3,260.7,275.5,260.7z M25.6,231.5c-0.8,0-1.4,0.6-1.4,1.4V251c0,0.7,0.6,1.4,1.4,1.4h250c0.2,0,0.3-0.1,0.3-0.3
			v-19.8c0-0.5-0.4-0.8-0.8-0.8H25.6z"/>
	</g>
	<g>
		<path class="st0" d="M243.6,230l-12-14.1c-3.1-3.7-7.7-5.8-12.5-5.8H116.6v17.2h-8.3v-25.5h110.8c7.3,0,14.1,3.2,18.9,8.7l12,14.1
			L243.6,230z"/>
	</g>
	<g>
		<path class="st0" d="M109.1,208.4l-4.4-6.3c-3.6-5.1-9.2-8.6-15.4-9.5l-15.3-2.3l1.2-8.3l15.3,2.3c8.5,1.2,16.1,6,21,13l4.4,6.3
			L109.1,208.4z"/>
	</g>
	<g>
		<polygon class="st0" points="70.7,228.3 62.6,226.3 92.1,105.3 76.9,89.6 46.2,228.2 38.1,226.4 72.1,72.6 101.3,102.8 		"/>
	</g>
	<g>
		<path class="st0" d="M119.2,129.9c-3,0-6-1.2-8.1-3.6L55.3,65.8c-3.9-4.2-4.4-10.5-1.2-15.3l2.4-3.5c3-4.5,7.8-7.2,13.1-7.6
			C75,38.9,80.2,41,83.8,45l52.8,58.6c3.9,4.3,3.5,11-0.7,14.9l-9.2,8.5C124.5,128.9,121.9,129.9,119.2,129.9z M70.9,47.6
			c-0.2,0-0.4,0-0.6,0c-2.8,0.2-5.3,1.6-6.8,3.9l-2.4,3.5c-1.1,1.6-0.9,3.6,0.4,5l55.7,60.5c1,1.1,2.7,1.2,3.8,0.2l9.2-8.5
			c0.9-0.8,1-2.2,0.1-3.1L77.6,50.6C75.9,48.7,73.5,47.6,70.9,47.6z"/>
	</g>
	<g>
		<rect x="119.1" y="121.5" class="st0" width="57.7" height="8.3"/>
	</g>
</g>
</svg>
