<?xml version="1.0" encoding="utf-8"?>
<!-- Generator: Adobe Illustrator 24.1.1, SVG Export Plug-In . SVG Version: 6.00 Build 0)  -->
<svg version="1.1" id="Layer_1" xmlns="http://www.w3.org/2000/svg" xmlns:xlink="http://www.w3.org/1999/xlink" x="0px" y="0px"
	 viewBox="0 0 300 300" style="enable-background:new 0 0 300 300;" xml:space="preserve">
<style type="text/css">
	.st0{fill:#272525;}
</style>
<g>
	<g>
		<path class="st0" d="M263.8,269.8h-243V76.1h238.7l19-24.4v203.5L263.8,269.8z M28.3,262.2h232.4l10.2-10.2V73.7l-7.7,9.9H28.3
			V262.2z"/>
	</g>
	<g>
		<polygon class="st0" points="199.2,79.8 191.6,79.8 191.6,29.3 264.6,29.3 278,56.2 271.3,59.6 259.9,36.8 199.2,36.8 		"/>
	</g>
	<g>
		<polygon class="st0" points="233.5,243 58,243 58,105.7 172.4,105.7 172.4,146.7 189.7,146.7 189.7,154.3 164.9,154.3 
			164.9,113.2 65.5,113.2 65.5,235.5 226,235.5 226,150.2 215.4,150.2 215.4,142.7 233.5,142.7 		"/>
	</g>
	<g>
		<rect x="214.5" y="187.8" class="st0" width="15.3" height="7.6"/>
	</g>
	<g>
		<rect x="120" y="109.4" class="st0" width="7.6" height="22.9"/>
	</g>
	<g>
		<rect x="123.8" y="187.8" class="st0" width="17.2" height="7.6"/>
	</g>
	<g>
		<rect x="61.8" y="157.7" class="st0" width="26.7" height="7.6"/>
	</g>
	<g>
		<rect x="120" y="164.3" class="st0" width="7.6" height="74.9"/>
	</g>
</g>
</svg>
