<?xml version="1.0" encoding="utf-8"?>
<!-- Generator: Adobe Illustrator 24.1.1, SVG Export Plug-In . SVG Version: 6.00 Build 0)  -->
<svg version="1.1" id="Layer_1" xmlns="http://www.w3.org/2000/svg" xmlns:xlink="http://www.w3.org/1999/xlink" x="0px" y="0px"
	 viewBox="0 0 300 300" style="enable-background:new 0 0 300 300;" xml:space="preserve">
<style type="text/css">
	.st0{fill:#272525;}
</style>
<g>
	<g>
		<path class="st0" d="M276.2,284.6H23.8V143.1L66.5,170v-26.7l48.2,29.2v-29.2l43.8,26.9v-27.3l49.5,33h7.3l11.9-160.5h26.2
			l11.1,158.2l11.6,0.1V284.6z M32.7,275.7h234.6v-93.2l-11-0.1L245.2,24.3h-9.7l-11.9,160.5h-18.2l-38-25.3V186l-43.8-26.9v29.1
			L75.3,159v27.1l-42.6-26.9V275.7z"/>
	</g>
	<g>
		<rect x="40.6" y="241.1" class="st0" width="44.9" height="8.9"/>
	</g>
	<g>
		<rect x="40.6" y="219.6" class="st0" width="44.9" height="8.9"/>
	</g>
	<g>
		<rect x="99.1" y="241.1" class="st0" width="44.9" height="8.9"/>
	</g>
	<g>
		<rect x="99.1" y="219.6" class="st0" width="44.9" height="8.9"/>
	</g>
	<g>
		<rect x="156.2" y="241.1" class="st0" width="44.9" height="8.9"/>
	</g>
	<g>
		<rect x="156.2" y="219.6" class="st0" width="44.9" height="8.9"/>
	</g>
	<g>
		<rect x="214.7" y="241.1" class="st0" width="44.9" height="8.9"/>
	</g>
	<g>
		<rect x="214.7" y="219.6" class="st0" width="44.9" height="8.9"/>
	</g>
</g>
</svg>
