<?xml version="1.0" encoding="utf-8"?>
<!-- Generator: Adobe Illustrator 24.1.1, SVG Export Plug-In . SVG Version: 6.00 Build 0)  -->
<svg version="1.1" id="Layer_1" xmlns="http://www.w3.org/2000/svg" xmlns:xlink="http://www.w3.org/1999/xlink" x="0px" y="0px"
	 viewBox="0 0 300 300" style="enable-background:new 0 0 300 300;" xml:space="preserve">
<style type="text/css">
	.st0{fill:#272525;}
</style>
<g>
	<g id="XMLID_28600_">
		<g id="XMLID_28604_">
			<path class="st0" d="M118.7,221.1h62.6c8.1,0,14.7-6.6,14.7-14.7v-40.1c0-7.4-5.6-13.6-12.7-14.5V136c0-18.3-14.9-33.2-33.2-33.2
				c-18.3,0-33.2,14.9-33.2,33.2v15.8c-7.2,0.9-12.7,7.1-12.7,14.5v40.1C104,214.5,110.6,221.1,118.7,221.1z M109.5,166.3
				c0-5.1,4.1-9.2,9.2-9.2h62.6c5.1,0,9.2,4.1,9.2,9.2v40.1c0,5.1-4.1,9.2-9.2,9.2h-62.6c-5.1,0-9.2-4.1-9.2-9.2V166.3z M150,108.2
				c15.3,0,27.8,12.5,27.8,27.8v15.7h-4.4V136c0-12.9-10.5-23.4-23.4-23.4c-12.9,0-23.4,10.5-23.4,23.4v15.7h-4.4V136
				C122.2,120.7,134.7,108.2,150,108.2z M167.9,151.7h-35.8V136c0-9.9,8-17.9,17.9-17.9c9.9,0,17.9,8,17.9,17.9V151.7z"/>
		</g>
		<g id="XMLID_28601_">
			<path class="st0" d="M144.5,201.3h10.9c1.2,0,2.2-1,2.2-2.2v-25.3c0-1.2-1-2.2-2.2-2.2h-10.9c-1.2,0-2.2,1-2.2,2.2v25.3
				C142.3,200.3,143.3,201.3,144.5,201.3z M146.7,175.9h6.6v21h-6.6V175.9z"/>
		</g>
	</g>
	<g>
		<path class="st0" d="M229.5,262.4H67.7c-7.9,0-14.3-6.4-14.3-14.3V147.1h7.1V248c0,4,3.2,7.2,7.2,7.2h161.8c4,0,7.2-3.2,7.2-7.2
			V147.1h7.1V248C243.9,255.9,237.4,262.4,229.5,262.4z"/>
	</g>
	<g>
		<path class="st0" d="M29.3,126.9l-4.1-5.8l110.1-78c10.5-7.5,24.6-7.3,34.9,0.4l104.5,77.6l-4.2,5.7L166,49.2
			c-7.9-5.9-18.6-6-26.6-0.3L29.3,126.9z"/>
	</g>
</g>
</svg>
