<?xml version="1.0" encoding="utf-8"?>
<!-- Generator: Adobe Illustrator 24.1.1, SVG Export Plug-In . SVG Version: 6.00 Build 0)  -->
<svg version="1.1" id="Layer_1" xmlns="http://www.w3.org/2000/svg" xmlns:xlink="http://www.w3.org/1999/xlink" x="0px" y="0px"
	 viewBox="0 0 300 300" style="enable-background:new 0 0 300 300;" xml:space="preserve">
<style type="text/css">
	.st0{fill:#272525;}
</style>
<g>
	<g>
		<path class="st0" d="M245.7,284.3h-32.8V64c0-10.7-8.7-19.4-19.4-19.4h-32.9c-11.7,0-21.3,9.6-21.3,21.3v16.4h-31.8V55.8
			c0-22.1,18-40.1,40.1-40.1h52.2c25.3,0,45.9,20.6,45.9,45.9V284.3z M220.6,276.6h17.5V61.6c0-21.1-17.1-38.2-38.2-38.2h-52.2
			c-17.9,0-32.4,14.5-32.4,32.4v18.9h16.5v-8.7c0-16,13-29,29-29h32.9c14.9,0,27,12.1,27,27V276.6z"/>
	</g>
	<g>
		<rect x="111.4" y="62" class="st0" width="24.2" height="3.8"/>
	</g>
	<g>
		<polygon class="st0" points="186.5,136.6 62.5,136.6 62.5,114.7 108.9,74 113.9,79.8 70.2,118.2 70.2,128.9 178.9,128.9 
			178.9,119 133.2,81.4 138,75.5 186.5,115.3 		"/>
	</g>
	<g>
		<rect x="68.3" y="110.9" class="st0" width="111.5" height="7.7"/>
	</g>
	<g>
		
			<rect x="51.2" y="240.8" transform="matrix(0.208 -0.9781 0.9781 0.208 -191.941 252.2666)" class="st0" width="17.1" height="7.6"/>
	</g>
	<g>
		
			<rect x="55.7" y="211.1" transform="matrix(0.208 -0.9781 0.9781 0.208 -157.8466 234.892)" class="st0" width="20.8" height="7.6"/>
	</g>
	<g>
		
			<rect x="61.6" y="177.5" transform="matrix(0.208 -0.9781 0.9781 0.208 -119.3688 215.2824)" class="st0" width="23.3" height="7.6"/>
	</g>
	<g>
		
			<rect x="71.5" y="146.5" transform="matrix(0.2076 -0.9782 0.9782 0.2076 -83.7685 197.2293)" class="st0" width="16.7" height="7.6"/>
	</g>
	<g>
		
			<rect x="82.6" y="243.8" transform="matrix(7.568824e-02 -0.9971 0.9971 7.568824e-02 -161.7654 320.6725)" class="st0" width="18.9" height="7.7"/>
	</g>
	<g>
		
			<rect x="83.7" y="210.8" transform="matrix(7.568824e-02 -0.9971 0.9971 7.568824e-02 -126.5706 292.676)" class="st0" width="21.8" height="7.7"/>
	</g>
	<g>
		
			<rect x="87.5" y="179.3" transform="matrix(7.568824e-02 -0.9971 0.9971 7.568824e-02 -92.9285 265.9162)" class="st0" width="19" height="7.7"/>
	</g>
	<g>
		
			<rect x="90.9" y="146.8" transform="matrix(7.568824e-02 -0.9971 0.9971 7.568824e-02 -58.3414 238.4034)" class="st0" width="17.1" height="7.7"/>
	</g>
	<g>
		
			<rect x="188.7" y="236.1" transform="matrix(0.9782 -0.2078 0.2078 0.9782 -46.6341 45.3395)" class="st0" width="7.6" height="17.1"/>
	</g>
	<g>
		
			<rect x="182.4" y="204.5" transform="matrix(0.9782 -0.2078 0.2078 0.9782 -40.5926 43.3779)" class="st0" width="7.6" height="20.8"/>
	</g>
	<g>
		
			<rect x="175.2" y="169.7" transform="matrix(0.9782 -0.2078 0.2078 0.9782 -33.7719 41.1611)" class="st0" width="7.6" height="23.3"/>
	</g>
	<g>
		
			<rect x="168.6" y="142" transform="matrix(0.9782 -0.2079 0.2079 0.9782 -27.4787 39.1338)" class="st0" width="7.6" height="16.7"/>
	</g>
	<g>
		
			<rect x="156.4" y="238.1" transform="matrix(0.9971 -7.549651e-02 7.549651e-02 0.9971 -18.235 12.8039)" class="st0" width="7.7" height="18.9"/>
	</g>
	<g>
		
			<rect x="153.9" y="203.7" transform="matrix(0.9972 -7.541988e-02 7.541988e-02 0.9972 -15.7365 12.5079)" class="st0" width="7.6" height="21.8"/>
	</g>
	<g>
		
			<rect x="151.5" y="173.6" transform="matrix(0.9971 -7.548322e-02 7.548322e-02 0.9971 -13.3765 12.2489)" class="st0" width="7.7" height="19"/>
	</g>
	<g>
		
			<rect x="149.1" y="142.1" transform="matrix(0.9971 -7.550983e-02 7.550983e-02 0.9971 -10.9406 11.9755)" class="st0" width="7.7" height="17.1"/>
	</g>
	<g>
		<rect x="122.3" y="235.6" class="st0" width="7.7" height="21.4"/>
	</g>
	<g>
		<rect x="122.3" y="205.2" class="st0" width="7.7" height="19.6"/>
	</g>
	<g>
		<rect x="122.3" y="171.5" class="st0" width="7.7" height="22.8"/>
	</g>
	<g>
		<rect x="122.3" y="142.1" class="st0" width="7.7" height="17.8"/>
	</g>
</g>
</svg>
