<?xml version="1.0" encoding="utf-8"?>
<!-- Generator: Adobe Illustrator 24.1.1, SVG Export Plug-In . SVG Version: 6.00 Build 0)  -->
<svg version="1.1" id="Layer_1" xmlns="http://www.w3.org/2000/svg" xmlns:xlink="http://www.w3.org/1999/xlink" x="0px" y="0px"
	 viewBox="0 0 300 300" style="enable-background:new 0 0 300 300;" xml:space="preserve">
<style type="text/css">
	.st0{fill:#35A7EC;}
	.st1{fill:none;stroke:#35A7EC;stroke-width:4;stroke-miterlimit:10;}
</style>
<g>
	<g>
		<g>
			<g>
				<path class="st0" d="M117.3,213.1c-1.6,0-3.1-1-3.7-2.6L97.1,166c-0.8-2,0.3-4.3,2.3-5.1s4.3,0.3,5.1,2.3l16.5,44.5
					c0.8,2-0.3,4.3-2.3,5.1C118.2,213,117.7,213.1,117.3,213.1z"/>
			</g>
			<g>
				<path class="st0" d="M117.5,213.6c-0.6,0-1.2-0.1-1.7-0.4c-1.4-0.7-2.3-2.2-2.2-3.7l1.7-36.8c0.1-1.5,0.9-2.8,2.3-3.4
					c1.3-0.6,2.9-0.5,4.1,0.4l22,16.7c1,0.7,1.5,1.8,1.6,3c0,1.2-0.5,2.3-1.4,3.1l-23.7,20.1C119.3,213.3,118.4,213.6,117.5,213.6z
					 M122.8,180.6l-0.9,20.2l13-11L122.8,180.6z"/>
			</g>
			<g>
				<path class="st0" d="M179.6,220.2c-3,0-5.9-1-8.4-2.8L116.8,176c-0.9-0.7-1.5-1.8-1.6-3c0-1.2,0.5-2.3,1.3-3.1l36.8-32.3
					L102.8,168c-1,0.6-2.2,0.7-3.3,0.4l-38.8-13.1c-3.6-1.2-5.9-4.4-6-8.2s2.2-7.1,5.7-8.4l150.5-57.2l0,0c3.1-1.2,6.5-0.5,9,1.6
					c2.5,2.2,3.5,5.5,2.7,8.7l-29.5,117.8c-1.1,4.5-4.4,8.2-8.8,9.7C182.8,219.9,181.2,220.2,179.6,220.2z M125.4,172.7l50.6,38.4
					c1.6,1.2,3.7,1.6,5.6,0.9c1.9-0.7,3.3-2.2,3.8-4.2L214.9,90c0.1-0.4-0.1-0.7-0.3-0.9c-0.2-0.2-0.5-0.3-0.9-0.2l0,0L63.2,146.1
					c-0.1,0.1-0.6,0.2-0.6,0.9s0.5,0.8,0.6,0.8l37.1,12.5l86.8-52.1c1.8-1.1,4-0.6,5.2,1.1s0.9,3.9-0.6,5.3L125.4,172.7z
					 M212.3,85.2L212.3,85.2L212.3,85.2z"/>
			</g>
		</g>
		<path id="XMLID_8_" class="st1" d="M150,297.1L150,297.1C68.7,297.1,2.9,231.3,2.9,150l0,0C2.9,68.7,68.7,2.9,150,2.9l0,0
			c81.3,0,147.1,65.8,147.1,147.1l0,0C297.1,231.3,231.3,297.1,150,297.1z"/>
	</g>
</g>
</svg>
