<?xml version="1.0" encoding="utf-8"?>
<!-- Generator: Adobe Illustrator 24.1.1, SVG Export Plug-In . SVG Version: 6.00 Build 0)  -->
<svg version="1.1" id="Layer_1" xmlns="http://www.w3.org/2000/svg" xmlns:xlink="http://www.w3.org/1999/xlink" x="0px" y="0px"
	 viewBox="0 0 300 300" style="enable-background:new 0 0 300 300;" xml:space="preserve">
<style type="text/css">
	.st0{fill:#222221;}
</style>
<g>
	<g>
		<g>
			<g>
				<path class="st0" d="M149.6,8.9c78.1,0,141.6,63.5,141.6,141.6s-63.5,141.6-141.6,141.6S7.9,228.6,7.9,150.5S71.5,8.9,149.6,8.9
					 M149.6,1C67,1,0,67.9,0,150.5C0,233.1,67,300.1,149.6,300.1c82.6,0,149.5-66.9,149.5-149.5C299.1,67.9,232.2,1,149.6,1L149.6,1
					z"/>
			</g>
		</g>
	</g>
	<g>
		<g>
			<path class="st0" d="M117.3,213.1c-1.6,0-3.1-1-3.7-2.6L97.1,166c-0.8-2,0.3-4.3,2.3-5.1c2-0.8,4.3,0.3,5.1,2.3l16.5,44.5
				c0.8,2-0.3,4.3-2.3,5.1C118.2,213,117.7,213.1,117.3,213.1z"/>
		</g>
		<g>
			<path class="st0" d="M117.5,213.6c-0.6,0-1.2-0.1-1.7-0.4c-1.4-0.7-2.3-2.2-2.2-3.7l1.7-36.8c0.1-1.5,0.9-2.8,2.3-3.4
				c1.3-0.6,2.9-0.5,4.1,0.4l22,16.7c1,0.7,1.5,1.8,1.6,3c0,1.2-0.5,2.3-1.4,3.1l-23.7,20.1C119.3,213.3,118.4,213.6,117.5,213.6z
				 M122.8,180.6l-0.9,20.2l13-11L122.8,180.6z"/>
		</g>
		<g>
			<path class="st0" d="M179.6,220.2c-3,0-5.9-1-8.4-2.8L116.8,176c-0.9-0.7-1.5-1.8-1.6-3c0-1.2,0.5-2.3,1.3-3.1l36.8-32.3
				L102.8,168c-1,0.6-2.2,0.7-3.3,0.4l-38.8-13.1c-3.6-1.2-5.9-4.4-6-8.2c-0.1-3.8,2.2-7.1,5.7-8.4l150.5-57.2h0
				c3.1-1.2,6.5-0.5,9,1.6c2.5,2.2,3.5,5.5,2.7,8.7l-29.5,117.8c-1.1,4.5-4.4,8.2-8.8,9.7C182.8,219.9,181.2,220.2,179.6,220.2z
				 M125.4,172.7l50.6,38.4c1.6,1.2,3.7,1.6,5.6,0.9c1.9-0.7,3.3-2.2,3.8-4.2L214.9,90c0.1-0.4-0.1-0.7-0.3-0.9
				c-0.2-0.2-0.5-0.3-0.9-0.2c0,0,0,0,0,0L63.2,146.1c-0.1,0.1-0.6,0.2-0.6,0.9s0.5,0.8,0.6,0.8l37.1,12.5l86.8-52.1
				c1.8-1.1,4-0.6,5.2,1.1c1.2,1.7,0.9,3.9-0.6,5.3L125.4,172.7z M212.3,85.2L212.3,85.2L212.3,85.2z"/>
		</g>
	</g>
</g>
</svg>
