<?xml version="1.0" encoding="iso-8859-1"?>
<!-- Generator: Adobe Illustrator 19.0.0, SVG Export Plug-In . SVG Version: 6.00 Build 0)  -->
<svg version="1.1" id="Capa_1" xmlns="http://www.w3.org/2000/svg" xmlns:xlink="http://www.w3.org/1999/xlink" x="0px" y="0px"
	 viewBox="0 0 512 512" style="enable-background:new 0 0 512 512;" xml:space="preserve">
<g>
	<g>
		<path d="M501.961,353.973h-89.698c1.099-3.118,1.705-6.468,1.705-9.959v-11.937h46.493c28.415,0,51.531-23.103,51.531-51.501
			c0-4.448-1.029-24.413-5.787-33.626c-0.02-0.038-0.041-0.075-0.061-0.113c-0.022-0.042-0.044-0.083-0.067-0.124
			c-16.947-32.741-42.54-60.184-74.032-79.368c-31.566-19.23-67.791-29.395-104.756-29.395H10.039
			C4.495,137.949,0,142.444,0,147.988v174.05c0,5.544,4.495,10.039,10.039,10.039h40.739v11.937c0,3.49,0.604,6.84,1.704,9.959
			H10.039C4.495,353.973,0,358.467,0,364.012s4.495,10.039,10.039,10.039h491.922c5.544,0,10.039-4.496,10.039-10.039
			C512,358.467,507.504,353.973,501.961,353.973z M479.905,241.513h-15.471c-30.899,0-60.359-9.723-85.195-28.118
			c-0.084-0.062-0.169-0.122-0.254-0.182c-5.665-3.929-17.634-15.791-22.004-20.268c-9.243-10.496-16.81-22.149-22.598-34.771
			C394.031,160.469,448.032,191.605,479.905,241.513z M202.31,158.027h43.651v83.486H202.31V158.027z M83.807,158.027h98.424v83.486
			H83.807V158.027z M20.078,158.027h43.651v83.486H20.078V158.027z M20.078,311.999v-50.407H256c5.544,0,10.039-4.496,10.039-10.039
			v-93.525h46.479c6.968,17.786,16.893,34.041,29.578,48.395c0.105,0.12,0.216,0.238,0.328,0.354
			c1.682,1.728,16.597,16.973,24.983,22.842c28.296,20.917,61.845,31.974,97.028,31.974h25.478c1.126,5.65,2,13.86,2,18.984
			c-0.001,15.111-12.026,31.422-31.454,31.422H20.078z M90.765,344.014c0,5.491-4.467,9.959-9.959,9.959
			c-5.486,0-9.949-4.468-9.949-9.959v-11.937h19.908V344.014z M109.138,353.973c1.101-3.119,1.705-6.47,1.705-9.959v-11.937h91.487
			v11.937c0,3.49,0.604,6.84,1.704,9.959H109.138z M242.327,344.014c0,5.491-4.467,9.959-9.959,9.959s-9.959-4.468-9.959-9.959
			v-11.937h19.918V344.014z M260.701,353.973c1.1-3.119,1.704-6.47,1.704-9.959v-11.937h91.487v11.937
			c0,3.49,0.604,6.84,1.705,9.959H260.701z M393.889,344.014c0,5.491-4.467,9.959-9.959,9.959s-9.959-4.468-9.959-9.959v-11.937
			h19.918V344.014z"/>
	</g>
</g>
<g>
	<g>
		<path d="M97.621,276.579H39.394c-5.545,0-10.039,4.496-10.039,10.039c0,5.544,4.495,10.039,10.039,10.039h58.227
			c5.545,0,10.039-4.496,10.039-10.039C107.661,281.076,103.166,276.579,97.621,276.579z"/>
	</g>
</g>
<g>
	<g>
		<circle cx="132.27" cy="286.62" r="10.04"/>
	</g>
</g>
<g>
</g>
<g>
</g>
<g>
</g>
<g>
</g>
<g>
</g>
<g>
</g>
<g>
</g>
<g>
</g>
<g>
</g>
<g>
</g>
<g>
</g>
<g>
</g>
<g>
</g>
<g>
</g>
<g>
</g>
</svg>
