<?xml version="1.0" encoding="utf-8"?>
<!-- Generator: Adobe Illustrator 24.1.1, SVG Export Plug-In . SVG Version: 6.00 Build 0)  -->
<svg version="1.1" id="Layer_1" xmlns="http://www.w3.org/2000/svg" xmlns:xlink="http://www.w3.org/1999/xlink" x="0px" y="0px"
	 viewBox="0 0 300 300" style="enable-background:new 0 0 300 300;" xml:space="preserve">
<style type="text/css">
	.st0{fill:#272525;}
</style>
<g id="XMLID_9973_">
	<path id="XMLID_9986_" class="st0" d="M248.8,51.5h-68.3c-6.1,0-11.8,2.3-16,6.1V45.3H22.5v124.6c-6.8,2.7-11.7,9.4-11.7,17.2v15.3
		c0,10.2,8.3,18.6,18.6,18.6h16.1c0,0.1,0,0.3,0,0.4c0,18.4,15,33.4,33.4,33.4c18.4,0,33.4-15,33.4-33.4c0-0.1,0-0.3,0-0.4h87.1
		c0,0.1,0,0.3,0,0.4c0,18.4,15,33.4,33.4,33.4s33.4-15,33.4-33.4c0-1.5-0.1-2.9-0.3-4.3c13.7-6.5,23.3-20.4,23.3-36.6V91.9
		C289.2,69.6,271,51.5,248.8,51.5z M40,53.6h107.4c4.8,0,8.7,3.9,8.7,8.7v13.5v92.7H30.8V62.8C30.8,57.7,35,53.6,40,53.6z
		 M78.9,246.4c-13.9,0-25.1-11.3-25.1-25.1c0-13.8,11.3-25.1,25.1-25.1c13.8,0,25.1,11.3,25.1,25.1C104,235.2,92.7,246.4,78.9,246.4
		z M232.8,246.4c-13.8,0-25.1-11.3-25.1-25.1c0-13.8,11.3-25.1,25.1-25.1s25.1,11.3,25.1,25.1C257.9,235.2,246.6,246.4,232.8,246.4z
		 M280.9,180.5c0,12.3-6.9,23-17.1,28.4c-5-12.3-17-21-31-21c-15.4,0-28.4,10.5-32.2,24.7h-89.4c-3.9-14.2-16.8-24.7-32.2-24.7
		c-15.4,0-28.4,10.5-32.2,24.7H29.4c-5.7,0-10.2-4.6-10.2-10.2v-15.3c0-5.6,4.6-10.2,10.2-10.2h135v-101c0-8.8,7.2-16,16-16h68.3
		c17.7,0,32.1,14.4,32.1,32.1V180.5z"/>
	<path id="XMLID_9983_" class="st0" d="M78.9,205.2c-8.9,0-16.1,7.2-16.1,16.1s7.2,16.1,16.1,16.1c8.9,0,16.1-7.2,16.1-16.1
		S87.8,205.2,78.9,205.2z M78.9,229.1c-4.3,0-7.8-3.5-7.8-7.8c0-4.3,3.5-7.8,7.8-7.8c4.3,0,7.8,3.5,7.8,7.8
		C86.7,225.6,83.2,229.1,78.9,229.1z"/>
	<path id="XMLID_9980_" class="st0" d="M232.8,205.2c-8.9,0-16.1,7.2-16.1,16.1s7.2,16.1,16.1,16.1c8.9,0,16.1-7.2,16.1-16.1
		S241.7,205.2,232.8,205.2z M232.8,229.1c-4.3,0-7.8-3.5-7.8-7.8c0-4.3,3.5-7.8,7.8-7.8s7.8,3.5,7.8,7.8
		C240.6,225.6,237.1,229.1,232.8,229.1z"/>
	<path id="XMLID_9974_" class="st0" d="M244.4,86.1H225v-0.2h-46.6v22v15.3V145h21.8H225h19.5c12,0,21.8-9.8,21.8-21.8v-15.3
		C266.2,95.9,256.4,86.1,244.4,86.1z M257.9,123.2c0,7.4-6,13.5-13.5,13.5H225h-4.2h-4.2h-16.5h-11.3h-2.1v-2.1v-11.4v-15.3V96.5
		v-2.4h2.4h27.6v0.2h4.2h4.2h19.5c7.4,0,13.5,6,13.5,13.5V123.2z"/>
</g>
</svg>
