<?xml version="1.0" encoding="utf-8"?>
<!-- Generator: Adobe Illustrator 24.1.1, SVG Export Plug-In . SVG Version: 6.00 Build 0)  -->
<svg version="1.1" id="Layer_1" xmlns="http://www.w3.org/2000/svg" xmlns:xlink="http://www.w3.org/1999/xlink" x="0px" y="0px"
	 viewBox="0 0 300 300" style="enable-background:new 0 0 300 300;" xml:space="preserve">
<style type="text/css">
	.st0{fill:#272525;}
</style>
<g>
	<g>
		<rect x="16.9" y="258.5" class="st0" width="17.5" height="7.7"/>
	</g>
	<g>
		<rect x="44.5" y="258.5" class="st0" width="222.6" height="7.7"/>
	</g>
	<g>
		<rect x="273.7" y="258.5" class="st0" width="9.5" height="7.7"/>
	</g>
	<g>
		<polygon class="st0" points="253.5,262.4 245.8,262.4 245.8,41.5 175.7,41.5 175.7,84.2 168,84.2 168,33.8 253.5,33.8 		"/>
	</g>
	<g>
		<polygon class="st0" points="56.4,262.4 48.7,262.4 48.7,33.8 134.2,33.8 134.2,84.9 126.5,84.9 126.5,41.5 56.4,41.5 		"/>
	</g>
	<g>
		<polygon class="st0" points="214.6,262.4 206.9,262.4 206.9,88 98.6,88 98.6,262.4 90.9,262.4 90.9,80.3 214.6,80.3 		"/>
	</g>
	<g>
		<rect x="94.7" y="102.9" class="st0" width="116" height="7.7"/>
	</g>
	<g>
		<polygon class="st0" points="187.3,262.4 179.6,262.4 179.6,194.2 124,194.2 124,262.4 116.3,262.4 116.3,186.5 187.3,186.5 		"/>
	</g>
</g>
</svg>
