<?xml version="1.0" encoding="utf-8"?>
<!-- Generator: Adobe Illustrator 24.1.1, SVG Export Plug-In . SVG Version: 6.00 Build 0)  -->
<svg version="1.1" id="Layer_1" xmlns="http://www.w3.org/2000/svg" xmlns:xlink="http://www.w3.org/1999/xlink" x="0px" y="0px"
	 viewBox="0 0 300 300" style="enable-background:new 0 0 300 300;" xml:space="preserve">
<style type="text/css">
	.st0{fill:none;stroke:#00C257;stroke-width:4;stroke-miterlimit:10;}
	.st1{fill-rule:evenodd;clip-rule:evenodd;fill:#00C257;}
</style>
<g id="XMLID_2124_">
	<path id="XMLID_2130_" class="st0" d="M150.6,297.1L150.6,297.1C69.1,297.1,3,231,3,149.5l0,0C3,68,69.1,2,150.6,2l0,0
		c81.5,0,147.5,66,147.5,147.5l0,0C298.1,231,232.1,297.1,150.6,297.1z"/>
	<g id="XMLID_2125_">
		<g>
			<g id="XMLID_17_">
				<path class="st1" d="M232.6,145.4c-1.1-43.2-36.7-77.9-80.5-77.9c-43.3,0-78.6,33.9-80.5,76.4c0,1.2-0.1,2.3-0.1,3.5
					c0,15.1,4.2,29.2,11.5,41.3l-14.5,42.9l44.6-14.2c11.5,6.3,24.8,10,38.9,10c44.5,0,80.5-35.8,80.5-79.9
					C232.6,146.7,232.6,146.1,232.6,145.4z M152.1,214.6c-13.8,0-26.5-4.1-37.2-11.1l-26,8.3l8.4-25c-8.1-11.1-12.9-24.7-12.9-39.4
					c0-2.2,0.1-4.4,0.3-6.5c3.3-34,32.3-60.7,67.4-60.7c35.6,0,64.8,27.3,67.5,61.9c0.2,1.7,0.2,3.5,0.2,5.2
					C219.8,184.5,189.4,214.6,152.1,214.6z"/>
			</g>
			<path id="XMLID_16_" class="st1" d="M189,163.6c-2-1-11.7-5.7-13.5-6.4s-3.1-1-4.4,1c-1.3,2-5.1,6.4-6.3,7.7s-2.3,1.5-4.3,0.5
				s-8.3-3-15.9-9.7c-5.8-5.2-9.8-11.6-11-13.5c-1.1-2-0.1-3,0.9-4c0.9-0.9,2-2.3,3-3.4c0.3-0.3,0.5-0.6,0.7-0.9
				c0.5-0.7,0.8-1.4,1.2-2.3c0.7-1.3,0.3-2.4-0.2-3.4s-4.4-10.6-6.1-14.6c-1.6-3.9-3.3-3.2-4.4-3.2c-1.1,0-2.5-0.2-3.8-0.2
				s-3.5,0.5-5.3,2.4c-1.8,2-6.9,6.7-6.9,16.4c0,2.3,0.4,4.5,1,6.7c2,6.9,6.3,12.6,7.1,13.6c1,1.3,13.6,21.7,33.7,29.6
				c20.1,7.8,20.1,5.2,23.7,4.9c3.6-0.3,11.7-4.7,13.3-9.3c1.7-4.6,1.7-8.5,1.2-9.3C192.3,165,190.9,164.5,189,163.6z"/>
		</g>
	</g>
</g>
</svg>
