<?xml version="1.0" encoding="utf-8"?>
<!-- Generator: Adobe Illustrator 24.1.1, SVG Export Plug-In . SVG Version: 6.00 Build 0)  -->
<svg version="1.1" id="Layer_1" xmlns="http://www.w3.org/2000/svg" xmlns:xlink="http://www.w3.org/1999/xlink" x="0px" y="0px"
	 viewBox="0 0 300 300" style="enable-background:new 0 0 300 300;" xml:space="preserve">
<style type="text/css">
	.st0{fill:#272525;}
</style>
<g id="XMLID_28546_">
	<path id="XMLID_28556_" class="st0" d="M120,240.7c0,16.5,13.5,30,30,30s30-13.5,30-30s-13.5-30-30-30
		C133.5,210.7,120,224.1,120,240.7z M150,261.9c-11.7,0-21.3-9.5-21.3-21.3c0-11.7,9.5-21.3,21.3-21.3c11.7,0,21.3,9.5,21.3,21.3
		S161.7,261.9,150,261.9z"/>
	<path id="XMLID_28553_" class="st0" d="M33.2,104.7c3.5,0,6.8-1.4,9.2-3.9C71,71.6,109.2,55.5,150,55.5s79,16.1,107.6,45.2
		c2.5,2.5,5.8,3.9,9.4,3.9c3.4,0,6.7-1.3,9.2-3.7c2.5-2.4,3.9-5.7,3.9-9.2s-1.3-6.8-3.7-9.3C242.8,48.2,197.9,29.3,150,29.3
		S57.2,48.2,23.7,82.4c-2.5,2.5-3.8,5.8-3.7,9.3c0,3.5,1.4,6.8,3.9,9.2c2.5,2.4,5.7,3.7,9.2,3.7C33.1,104.7,33.1,104.7,33.2,104.7z
		 M29.9,88.6C61.8,56,104.5,38.1,150,38.1S238.2,56,270.1,88.6c0.8,0.8,1.3,1.9,1.2,3.1c0,1.2-0.5,2.3-1.3,3.1
		c-1.7,1.6-4.5,1.6-6.2-0.1C233.6,63.8,193.2,46.8,150,46.8s-83.6,17-113.8,47.9c-0.8,0.8-1.9,1.3-3.1,1.3c-1.2,0-2.3-0.4-3.1-1.3
		c-0.8-0.8-1.3-1.9-1.3-3.1C28.7,90.5,29.1,89.4,29.9,88.6z"/>
	<path id="XMLID_28550_" class="st0" d="M243,129.1c-24.6-25.4-57.7-39.3-93-39.3s-68.3,14-93,39.3c-5,5.2-4.9,13.5,0.3,18.5
		s13.5,4.9,18.5-0.3c19.7-20.2,46-31.4,74.2-31.4s54.5,11.1,74.2,31.4c2.5,2.6,5.8,4,9.4,4c3.4,0,6.7-1.3,9.1-3.7
		C247.9,142.6,248,134.3,243,129.1z M236.6,141.4c-1.7,1.6-4.6,1.6-6.2-0.1c-21.3-22-49.9-34-80.5-34s-59.1,12.1-80.5,34
		c-1.7,1.7-4.4,1.8-6.2,0.1c-1.7-1.7-1.8-4.4-0.1-6.2c23-23.7,53.8-36.7,86.7-36.7s63.7,13,86.7,36.7
		C238.4,136.9,238.4,139.7,236.6,141.4z"/>
	<path id="XMLID_28547_" class="st0" d="M203,202.9c3.4,0,6.6-1.3,9.1-3.6c2.5-2.4,4-5.7,4-9.2c0.1-3.5-1.2-6.8-3.6-9.3
		C196,163.5,173.8,154,150,154s-46,9.5-62.5,26.7c-2.4,2.5-3.7,5.8-3.6,9.3s1.5,6.8,4,9.2c2.5,2.3,5.7,3.6,9,3.6c0.1,0,0.2,0,0.3,0
		c3.5-0.1,6.8-1.5,9.2-4c11.5-12,26.9-18.6,43.5-18.6s32,6.6,43.5,18.6C196,201.4,199.4,202.9,203,202.9z M94,192.9
		c-0.8-0.8-1.3-1.9-1.3-3.1c0-1.2,0.4-2.3,1.2-3.1c14.8-15.5,34.8-24,56.2-24s41.3,8.5,56.2,24c0.8,0.8,1.2,2,1.2,3.1
		c0,1.2-0.5,2.3-1.4,3.1c-1.7,1.6-4.6,1.5-6.2-0.1C186.7,179,169,171.5,150,171.5s-36.7,7.6-49.8,21.3c-0.8,0.8-1.9,1.3-3.1,1.3
		C95.9,194.2,94.8,193.7,94,192.9z"/>
</g>
</svg>
